{
	"asset":{
		"generator":"Khronos glTF Blender I/O v4.1.63",
		"version":"2.0"
	},
	"scene":0,
	"scenes":[
		{
			"name":"Scene",
			"nodes":[
				0
			]
		}
	],
	"nodes":[
		{
			"mesh":0,
			"name":"Cylinder",
			"translation":[
				0,
				-0.05686376988887787,
				0
			]
		}
	],
	"animations":[
		{
			"channels":[
				{
					"sampler":0,
					"target":{
						"node":0,
						"path":"translation"
					}
				},
				{
					"sampler":1,
					"target":{
						"node":0,
						"path":"rotation"
					}
				},
				{
					"sampler":2,
					"target":{
						"node":0,
						"path":"scale"
					}
				}
			],
			"name":"derecha",
			"samplers":[
				{
					"input":5,
					"interpolation":"LINEAR",
					"output":6
				},
				{
					"input":7,
					"interpolation":"STEP",
					"output":8
				},
				{
					"input":7,
					"interpolation":"STEP",
					"output":9
				}
			]
		},
		{
			"channels":[
				{
					"sampler":0,
					"target":{
						"node":0,
						"path":"translation"
					}
				},
				{
					"sampler":1,
					"target":{
						"node":0,
						"path":"rotation"
					}
				},
				{
					"sampler":2,
					"target":{
						"node":0,
						"path":"scale"
					}
				}
			],
			"name":"arriba",
			"samplers":[
				{
					"input":5,
					"interpolation":"LINEAR",
					"output":10
				},
				{
					"input":7,
					"interpolation":"STEP",
					"output":11
				},
				{
					"input":7,
					"interpolation":"STEP",
					"output":12
				}
			]
		}
	],
	"materials":[
		{
			"doubleSided":true,
			"name":"Material",
			"pbrMetallicRoughness":{
				"baseColorFactor":[
					0.8000074625015259,
					0.3320910930633545,
					0.17246480286121368,
					1
				],
				"metallicFactor":0,
				"roughnessFactor":0.37899070978164673
			}
		}
	],
	"meshes":[
		{
			"name":"Cylinder",
			"primitives":[
				{
					"attributes":{
						"POSITION":0,
						"NORMAL":1,
						"TEXCOORD_0":2,
						"TEXCOORD_1":3
					},
					"indices":4,
					"material":0
				}
			]
		}
	],
	"accessors":[
		{
			"bufferView":0,
			"componentType":5126,
			"count":1726,
			"max":[
				0.03874633088707924,
				0.09757138043642044,
				0.03874633088707924
			],
			"min":[
				-0.03874633088707924,
				0.06745046377182007,
				-0.03874633088707924
			],
			"type":"VEC3"
		},
		{
			"bufferView":1,
			"componentType":5126,
			"count":1726,
			"type":"VEC3"
		},
		{
			"bufferView":2,
			"componentType":5126,
			"count":1726,
			"type":"VEC2"
		},
		{
			"bufferView":3,
			"componentType":5126,
			"count":1726,
			"type":"VEC2"
		},
		{
			"bufferView":4,
			"componentType":5123,
			"count":9216,
			"type":"SCALAR"
		},
		{
			"bufferView":5,
			"componentType":5126,
			"count":40,
			"max":[
				1.6666666666666667
			],
			"min":[
				0.041666666666666664
			],
			"type":"SCALAR"
		},
		{
			"bufferView":6,
			"componentType":5126,
			"count":40,
			"type":"VEC3"
		},
		{
			"bufferView":7,
			"componentType":5126,
			"count":2,
			"max":[
				1.6666666666666667
			],
			"min":[
				0.041666666666666664
			],
			"type":"SCALAR"
		},
		{
			"bufferView":8,
			"componentType":5126,
			"count":2,
			"type":"VEC4"
		},
		{
			"bufferView":9,
			"componentType":5126,
			"count":2,
			"type":"VEC3"
		},
		{
			"bufferView":10,
			"componentType":5126,
			"count":40,
			"type":"VEC3"
		},
		{
			"bufferView":11,
			"componentType":5126,
			"count":2,
			"type":"VEC4"
		},
		{
			"bufferView":12,
			"componentType":5126,
			"count":2,
			"type":"VEC3"
		}
	],
	"bufferViews":[
		{
			"buffer":0,
			"byteLength":20712,
			"byteOffset":0,
			"target":34962
		},
		{
			"buffer":0,
			"byteLength":20712,
			"byteOffset":20712,
			"target":34962
		},
		{
			"buffer":0,
			"byteLength":13808,
			"byteOffset":41424,
			"target":34962
		},
		{
			"buffer":0,
			"byteLength":13808,
			"byteOffset":55232,
			"target":34962
		},
		{
			"buffer":0,
			"byteLength":18432,
			"byteOffset":69040,
			"target":34963
		},
		{
			"buffer":0,
			"byteLength":160,
			"byteOffset":87472
		},
		{
			"buffer":0,
			"byteLength":480,
			"byteOffset":87632
		},
		{
			"buffer":0,
			"byteLength":8,
			"byteOffset":88112
		},
		{
			"buffer":0,
			"byteLength":32,
			"byteOffset":88120
		},
		{
			"buffer":0,
			"byteLength":24,
			"byteOffset":88152
		},
		{
			"buffer":0,
			"byteLength":480,
			"byteOffset":88176
		},
		{
			"buffer":0,
			"byteLength":32,
			"byteOffset":88656
		},
		{
			"buffer":0,
			"byteLength":24,
			"byteOffset":88688
		}
	],
	"buffers":[
		{
			"byteLength":88712,
			"uri":"cilindro5.bin"
		}
	]
}
