{
	"asset":{
		"generator":"Khronos glTF Blender I/O v4.1.63",
		"version":"2.0"
	},
	"extensionsUsed":[
		"KHR_materials_specular"
	],
	"scene":0,
	"scenes":[
		{
			"name":"Scene",
			"nodes":[
				0
			]
		}
	],
	"nodes":[
		{
			"mesh":0,
			"name":"Tia_03",
			"rotation":[
				0.7071068286895752,
				0,
				0,
				0.7071068286895752
			],
			"scale":[
				0.009999999776482582,
				0.009999999776482582,
				0.009999999776482582
			]
		}
	],
	"materials":[
		{
			"doubleSided":true,
			"extensions":{
				"KHR_materials_specular":{
					"specularColorFactor":[
						2.0,
						2.0,
						2.0
					]
				}
			},
			"name":"phong1",
			"pbrMetallicRoughness":{
				"baseColorFactor":[
					0.710099995136261,
					0.30489999055862427,
					0.013899999670684338,
					1
				],
				"metallicFactor":0.5,
				"roughnessFactor":0.5527864098548889
			}
		},
		{
			"doubleSided":true,
			"name":"Material",
			"pbrMetallicRoughness":{
				"baseColorFactor":[
					0.800000011920929,
					0.800000011920929,
					0.800000011920929,
					1
				],
				"metallicFactor":0,
				"roughnessFactor":0.5
			}
		}
	],
	"meshes":[
		{
			"name":"Mesh",
			"primitives":[
				{
					"attributes":{
						"POSITION":0,
						"NORMAL":1,
						"TEXCOORD_0":2
					},
					"indices":3,
					"material":0
				},
				{
					"attributes":{
						"POSITION":4,
						"NORMAL":5,
						"TEXCOORD_0":6
					},
					"indices":7,
					"material":1
				}
			]
		}
	],
	"accessors":[
		{
			"bufferView":0,
			"componentType":5126,
			"count":58520,
			"max":[
				1.7957903146743774,
				2.9328114986419678,
				0.04895452782511711
			],
			"min":[
				-2.538655996322632,
				-0.09701256453990936,
				-10.847647666931152
			],
			"type":"VEC3"
		},
		{
			"bufferView":1,
			"componentType":5126,
			"count":58520,
			"type":"VEC3"
		},
		{
			"bufferView":2,
			"componentType":5126,
			"count":58520,
			"type":"VEC2"
		},
		{
			"bufferView":3,
			"componentType":5123,
			"count":314814,
			"type":"SCALAR"
		},
		{
			"bufferView":4,
			"componentType":5126,
			"count":1194,
			"max":[
				1.63084077835083,
				2.377913475036621,
				-8.399648666381836
			],
			"min":[
				-0.8976225256919861,
				0.3045307993888855,
				-9.286528587341309
			],
			"type":"VEC3"
		},
		{
			"bufferView":5,
			"componentType":5126,
			"count":1194,
			"type":"VEC3"
		},
		{
			"bufferView":6,
			"componentType":5126,
			"count":1194,
			"type":"VEC2"
		},
		{
			"bufferView":7,
			"componentType":5123,
			"count":4752,
			"type":"SCALAR"
		}
	],
	"bufferViews":[
		{
			"buffer":0,
			"byteLength":702240,
			"byteOffset":0,
			"target":34962
		},
		{
			"buffer":0,
			"byteLength":702240,
			"byteOffset":702240,
			"target":34962
		},
		{
			"buffer":0,
			"byteLength":468160,
			"byteOffset":1404480,
			"target":34962
		},
		{
			"buffer":0,
			"byteLength":629628,
			"byteOffset":1872640,
			"target":34963
		},
		{
			"buffer":0,
			"byteLength":14328,
			"byteOffset":2502268,
			"target":34962
		},
		{
			"buffer":0,
			"byteLength":14328,
			"byteOffset":2516596,
			"target":34962
		},
		{
			"buffer":0,
			"byteLength":9552,
			"byteOffset":2530924,
			"target":34962
		},
		{
			"buffer":0,
			"byteLength":9504,
			"byteOffset":2540476,
			"target":34963
		}
	],
	"buffers":[
		{
			"byteLength":2549980,
			"uri":"tia_12.bin"
		}
	]
}
